<?xml version="1.0" encoding="iso-8859-1"?>
<!-- Generator: Adobe Illustrator 19.0.0, SVG Export Plug-In . SVG Version: 6.00 Build 0)  -->
<svg xmlns="http://www.w3.org/2000/svg" xmlns:xlink="http://www.w3.org/1999/xlink" version="1.1" id="Capa_1" x="0px" y="0px" viewBox="0 0 480 480" style="enable-background:new 0 0 480 480;" xml:space="preserve" width="512px" height="512px">
<g>
	<g>
		<path d="M456,256h-16v-24c0-13.232-10.768-24-24-24h-16h-32h-32h-32h-16c-13.232,0-24,10.768-24,24v24h-32V40h24    c4.416,0,8-3.584,8-8V0h-16v24h-96V0h-16v32c0,4.416,3.584,8,8,8h8v16h-16c-4.416,0-8,3.584-8,8v56c0,13.232,10.768,24,24,24h16    c13.232,0,24-10.768,24-24V64c0-4.416-3.584-8-8-8h-16V40h48v136h-16v16h16v64h-32v-24c0-13.232-10.768-24-24-24H64v-8    c0-13.232-10.768-24-24-24H8c-4.416,0-8,3.584-8,8v144c0,13.232,10.768,24,24,24h32h3.056L72,377.888V408    c0,0.064,0.032,0.112,0.032,0.176C62.36,415.48,56,426.968,56,440c0,22.056,17.944,40,40,40c22.056,0,40-17.944,40-40    c0-9.04-3.128-17.296-8.208-24H184h112h56.208c-5.08,6.704-8.208,14.96-8.208,24c0,22.056,17.944,40,40,40    c22.056,0,40-17.944,40-40c0-13.032-6.36-24.52-16.032-31.824c0-0.064,0.032-0.112,0.032-0.176v-30.112L420.944,352H456    c13.232,0,24-10.768,24-24v-32v-16C480,266.768,469.232,256,456,256z M176,72v48c0,4.408-3.592,8-8,8h-16c-4.408,0-8-3.592-8-8V72    H176z M48,216v48v32v40H24c-4.408,0-8-3.592-8-8V192h24c4.408,0,8,3.592,8,8V216z M408,224h8c4.408,0,8,3.592,8,8v24h-16V224z     M376,224h16v32h-16V224z M344,224h16v32h-16V224z M312,224h16v32h-16V224z M280,232c0-4.408,3.592-8,8-8h8v32h-16V232z M64,224    h96c4.408,0,8,3.592,8,8v24H64V224z M96,464c-13.232,0-24-10.768-24-24s10.768-24,24-24s24,10.768,24,24S109.232,464,96,464z     M84.944,368l-8-16h38.112l-8,16H84.944z M104,384v16H88v-16H104z M176,400h-56v-16h56V400z M288,400h-96v-16h96V400z M184,368    h-59.056l8-16h214.112l8,16H296H184z M304,400v-16h56v16H304z M408,440c0,13.232-10.768,24-24,24s-24-10.768-24-24    s10.768-24,24-24S408,426.768,408,440z M372.944,368l-8-16h38.112l-8,16H372.944z M392,384v16h-16v-16H392z M464,328    c0,4.408-3.592,8-8,8h-40h-64H128H64v-32h400V328z M464,288H64v-16h112h96h32h32h32h32h32h24c4.408,0,8,3.592,8,8V288z" fill="#FFFFFF"/>
	</g>
</g>
<g>
	<g>
		<rect x="88" y="432" width="16" height="16" fill="#FFFFFF"/>
	</g>
</g>
<g>
	<g>
		<rect x="376" y="432" width="16" height="16" fill="#FFFFFF"/>
	</g>
</g>
<g>
	<g>
		<path d="M432,72h-24V48c0-4.416-3.584-8-8-8h-40c-4.416,0-8,3.584-8,8v24h-24c-4.416,0-8,3.584-8,8v40c0,4.416,3.584,8,8,8h24v24    c0,4.416,3.584,8,8,8h40c4.416,0,8-3.584,8-8v-24h24c4.416,0,8-3.584,8-8V80C440,75.584,436.416,72,432,72z M424,112h-24    c-4.416,0-8,3.584-8,8v24h-24v-24c0-4.416-3.584-8-8-8h-24V88h24c4.416,0,8-3.584,8-8V56h24v24c0,4.416,3.584,8,8,8h24V112z" fill="#FFFFFF"/>
	</g>
</g>
<g>
</g>
<g>
</g>
<g>
</g>
<g>
</g>
<g>
</g>
<g>
</g>
<g>
</g>
<g>
</g>
<g>
</g>
<g>
</g>
<g>
</g>
<g>
</g>
<g>
</g>
<g>
</g>
<g>
</g>
</svg>
