<svg xmlns="http://www.w3.org/2000/svg" width="512" height="511" viewBox="0 0 512 511">
  <metadata><?xpacket begin="﻿" id="W5M0MpCehiHzreSzNTczkc9d"?>
<x:xmpmeta xmlns:x="adobe:ns:meta/" x:xmptk="Adobe XMP Core 5.6-c138 79.159824, 2016/09/14-01:09:01        ">
   <rdf:RDF xmlns:rdf="http://www.w3.org/1999/02/22-rdf-syntax-ns#">
      <rdf:Description rdf:about=""/>
   </rdf:RDF>
</x:xmpmeta>
                                                                                                    
                                                                                                    
                                                                                                    
                                                                                                    
                                                                                                    
                                                                                                    
                                                                                                    
                                                                                                    
                                                                                                    
                                                                                                    
                                                                                                    
                                                                                                    
                                                                                                    
                                                                                                    
                                                                                                    
                                                                                                    
                                                                                                    
                                                                                                    
                                                                                                    
                                                                                                    
                           
<?xpacket end="w"?></metadata>
<defs>
    <style>
      .cls-1 {
        fill-rule: evenodd;
      }
    </style>
  </defs>
  <path id="Forma_1" data-name="Forma 1" class="cls-1" d="M231.672,73.382h-31.86V41.54a7.6,7.6,0,0,0-7.6-7.6H156.33a7.6,7.6,0,0,0-7.6,7.6V73.382h-31.86a7.6,7.6,0,0,0-7.6,7.6v35.854a7.6,7.6,0,0,0,7.6,7.6h31.86v31.84a7.6,7.6,0,0,0,7.6,7.6h35.877a7.6,7.6,0,0,0,7.6-7.6v-31.84h31.86a7.6,7.6,0,0,0,7.6-7.6V80.981A7.6,7.6,0,0,0,231.672,73.382Zm-7.6,35.854h-31.86a7.6,7.6,0,0,0-7.6,7.6v31.841H163.935V116.834a7.6,7.6,0,0,0-7.6-7.6h-31.86V88.58h31.86a7.6,7.6,0,0,0,7.6-7.6V49.14H184.6V80.981a7.6,7.6,0,0,0,7.6,7.6h31.86v20.655ZM504.4,59.01a7.6,7.6,0,0,0,7.6-7.6V16.221a7.6,7.6,0,0,0-7.6-7.6H455.844a7.6,7.6,0,1,0,0,15.2h40.948V43.812H256.422a99.748,99.748,0,0,0-17.807-19.99H420.359a7.6,7.6,0,1,0,0-15.2H214.67a98.95,98.95,0,0,0-80.8,0H7.607a7.6,7.6,0,0,0-7.6,7.6V51.411a7.6,7.6,0,0,0,7.6,7.6H27.894V324.8a7.6,7.6,0,0,0,15.208,0V59.01H83.718a98.409,98.409,0,0,0-8.333,44.046c2.15,52.178,45.172,93.99,97.421,94.749A98.88,98.88,0,0,0,264.819,59.011H468.9v401.6h-17.62V341.685a7.6,7.6,0,0,0-7.6-7.6h-130.9a7.6,7.6,0,0,0-7.6,7.6V460.612H43.1V360.264a7.6,7.6,0,0,0-15.208,0V460.613H7.6a7.6,7.6,0,0,0-7.6,7.6V503.4A7.6,7.6,0,0,0,7.6,511H504.393a7.6,7.6,0,0,0,7.6-7.6V468.212a7.6,7.6,0,0,0-7.6-7.6H484.109V59.01H504.4ZM35.5,43.812H15.211V23.82h94.711a99.71,99.71,0,0,0-17.807,19.99H35.5ZM174.269,182.617A83.71,83.71,0,1,1,258.03,98.908,83.831,83.831,0,0,1,174.269,182.617ZM320.385,349.284H436.073V364.99H320.385V349.284Zm115.689,30.9v80.425H385.833V380.186h50.241Zm-115.689,0h50.241v80.425H320.385V380.188Zm176.4,95.623V495.8H15.208V475.811H496.789Zm-134.6-262.546H312.782a7.6,7.6,0,0,0-7.6,7.6v90.172a7.6,7.6,0,0,0,7.6,7.6h49.411a7.6,7.6,0,0,0,7.6-7.6V220.864A7.6,7.6,0,0,0,362.193,213.265Zm-7.6,90.172h-34.2v-46.1h34.2v46.1Zm0-61.3h-34.2V228.464h34.2v13.677ZM199.223,213.265H149.812a7.6,7.6,0,0,0-7.6,7.6v90.172a7.6,7.6,0,0,0,7.6,7.6h49.411a7.6,7.6,0,0,0,7.6-7.6V220.864A7.6,7.6,0,0,0,199.223,213.265Zm-7.6,90.172h-34.2v-46.1h34.2v46.1Zm0-61.3h-34.2V228.464h34.2v13.677Zm252.058-28.876H394.266a7.6,7.6,0,0,0-7.6,7.6v90.172a7.6,7.6,0,0,0,7.6,7.6h49.411a7.6,7.6,0,0,0,7.6-7.6V220.864A7.6,7.6,0,0,0,443.677,213.265Zm-41.807,15.2h34.2v13.677h-34.2V228.464Zm34.2,74.973h-34.2v-46.1h34.2v46.1ZM280.707,213.265H231.3a7.6,7.6,0,0,0-7.6,7.6v90.172a7.6,7.6,0,0,0,7.6,7.6h49.411a7.6,7.6,0,0,0,7.6-7.6V220.864A7.6,7.6,0,0,0,280.707,213.265Zm-7.6,90.172H238.9v-46.1h34.2v46.1Zm0-61.3H238.9V228.464h34.2v13.677ZM117.737,213.265H68.326a7.6,7.6,0,0,0-7.6,7.6v90.172a7.6,7.6,0,0,0,7.6,7.6h49.411a7.6,7.6,0,0,0,7.6-7.6V220.864A7.6,7.6,0,0,0,117.737,213.265Zm-7.6,90.172H75.93v-46.1h34.2v46.1Zm0-61.3H75.93V228.464h34.2v13.677Zm89.09,91.945H149.812a7.6,7.6,0,0,0-7.6,7.6v90.172a7.6,7.6,0,0,0,7.6,7.6h49.411a7.6,7.6,0,0,0,7.6-7.6V341.685A7.6,7.6,0,0,0,199.223,334.086Zm-7.6,90.172h-34.2v-46.1h34.2v46.1Zm0-61.3h-34.2V349.284h34.2v13.674Zm96.692-21.268v0a7.6,7.6,0,0,0-7.6-7.6H231.3a7.6,7.6,0,0,0-7.6,7.6v90.172h0a7.6,7.6,0,0,0,7.6,7.6h49.411a7.6,7.6,0,0,0,7.6-7.6V370.605c0-.016,0-0.032,0-0.049V341.689h0ZM273.1,424.258H238.9v-46.1h34.2v46.1Zm0-61.3H238.9V349.284h34.2v13.674ZM117.737,334.086H68.326a7.6,7.6,0,0,0-7.6,7.6v90.172a7.6,7.6,0,0,0,7.6,7.6h49.411a7.6,7.6,0,0,0,7.6-7.6V341.685A7.6,7.6,0,0,0,117.737,334.086Zm-7.6,90.172H75.93v-46.1h34.2v46.1Zm0-61.3H75.93V349.284h34.2v13.674ZM362.193,92.445H312.782a7.6,7.6,0,0,0-7.6,7.6v90.172a7.6,7.6,0,0,0,7.6,7.6h49.411a7.6,7.6,0,0,0,7.6-7.6V100.044A7.6,7.6,0,0,0,362.193,92.445Zm-7.6,90.172h-34.2V136.523h34.2v46.094Zm0-61.293h-34.2V107.643h34.2v13.681Zm89.088-28.879H394.266a7.6,7.6,0,0,0-7.6,7.6v90.172a7.6,7.6,0,0,0,7.6,7.6h49.411a7.6,7.6,0,0,0,7.6-7.6V100.044A7.6,7.6,0,0,0,443.677,92.445Zm-41.807,15.2h34.2v13.681h-34.2V107.643Zm34.2,74.974h-34.2V136.523h34.2v46.094Z"/>
</svg>
