<svg xmlns="http://www.w3.org/2000/svg" xmlns:xlink="http://www.w3.org/1999/xlink" viewBox="0 0 22 30">
  <metadata><?xpacket begin="﻿" id="W5M0MpCehiHzreSzNTczkc9d"?>
<x:xmpmeta xmlns:x="adobe:ns:meta/" x:xmptk="Adobe XMP Core 5.6-c138 79.159824, 2016/09/14-01:09:01        ">
   <rdf:RDF xmlns:rdf="http://www.w3.org/1999/02/22-rdf-syntax-ns#">
      <rdf:Description rdf:about=""/>
   </rdf:RDF>
</x:xmpmeta>
                                                                                                    
                                                                                                    
                                                                                                    
                                                                                                    
                                                                                                    
                                                                                                    
                                                                                                    
                                                                                                    
                                                                                                    
                                                                                                    
                                                                                                    
                                                                                                    
                                                                                                    
                                                                                                    
                                                                                                    
                                                                                                    
                                                                                                    
                                                                                                    
                                                                                                    
                                                                                                    
                           
<?xpacket end="w"?></metadata>
<defs>
    <style>
      .cls-1 {
        fill-rule: evenodd;
      }
    </style>
    <filter id="filter" x="6105" y="726" width="22" height="30" filterUnits="userSpaceOnUse">
      <feFlood result="flood" flood-color="#fff"/>
      <feComposite result="composite" operator="in" in2="SourceGraphic"/>
      <feBlend result="blend" in2="SourceGraphic"/>
    </filter>
  </defs>
  <path id="Forma_1" data-name="Forma 1" class="cls-1" d="M6124.95,756h-17.9a2.046,2.046,0,0,1-2.05-2.037V730.914a2.047,2.047,0,0,1,2.05-2.037h3.01a0.408,0.408,0,1,1,0,.815h-3.01a1.226,1.226,0,0,0-1.23,1.222v23.045a1.226,1.226,0,0,0,1.23,1.222h17.9a1.233,1.233,0,0,0,1.23-1.222V730.914a1.233,1.233,0,0,0-1.23-1.222h-3.02a0.408,0.408,0,1,1,0-.815h3.02a2.038,2.038,0,0,1,2.04,2.037v23.045A2.031,2.031,0,0,1,6124.95,756Zm-3.02-23.154h-11.87a0.413,0.413,0,0,1-.41-0.408v-4.241a0.413,0.413,0,0,1,.41-0.408h3.78a2.2,2.2,0,0,1,4.32,0h3.77a0.407,0.407,0,0,1,.41.408v4.242A0.406,0.406,0,0,1,6121.93,732.842Zm-11.46-.815h11.05V728.6h-3.73a0.407,0.407,0,0,1-.41-0.407,1.38,1.38,0,0,0-2.76,0,0.413,0.413,0,0,1-.41.407h-3.74v3.427h0Zm4.1,16.258a0.423,0.423,0,0,1-.38-0.242l-1.94-4.341h-3.41a0.408,0.408,0,1,1,0-.815h3.68a0.4,0.4,0,0,1,.37.242l1.63,3.648,2.94-8.265a0.4,0.4,0,0,1,.36-0.272,0.39,0.39,0,0,1,.39.235l2.08,4.413h2.87a0.408,0.408,0,1,1,0,.815h-3.14a0.422,0.422,0,0,1-.37-0.235l-1.76-3.746-2.94,8.293a0.4,0.4,0,0,1-.37.271h-0.01Z" transform="translate(-6105 -726)"/>
</svg>
