<svg xmlns="http://www.w3.org/2000/svg" xmlns:xlink="http://www.w3.org/1999/xlink" width="24" height="24" viewBox="0 0 24 24">
  <metadata><?xpacket begin="﻿" id="W5M0MpCehiHzreSzNTczkc9d"?>
<x:xmpmeta xmlns:x="adobe:ns:meta/" x:xmptk="Adobe XMP Core 5.6-c138 79.159824, 2016/09/14-01:09:01        ">
   <rdf:RDF xmlns:rdf="http://www.w3.org/1999/02/22-rdf-syntax-ns#">
      <rdf:Description rdf:about=""/>
   </rdf:RDF>
</x:xmpmeta>
                                                                                                    
                                                                                                    
                                                                                                    
                                                                                                    
                                                                                                    
                                                                                                    
                                                                                                    
                                                                                                    
                                                                                                    
                                                                                                    
                                                                                                    
                                                                                                    
                                                                                                    
                                                                                                    
                                                                                                    
                                                                                                    
                                                                                                    
                                                                                                    
                                                                                                    
                                                                                                    
                           
<?xpacket end="w"?></metadata>
<defs>
    <style>
      .cls-1 {
        fill-rule: evenodd;
      }
    </style>
    <filter id="filter" x="6105" y="878" width="24" height="24" filterUnits="userSpaceOnUse">
      <feFlood result="flood" flood-color="#fff"/>
      <feComposite result="composite" operator="in" in2="SourceGraphic"/>
      <feBlend result="blend" in2="SourceGraphic"/>
    </filter>
  </defs>
  <path id="Forma_1" data-name="Forma 1" class="cls-1" d="M6127.76,887.333h-2.24a0.846,0.846,0,0,1-.8-0.532,0.828,0.828,0,0,1,.19-0.94l1.59-1.587a1.241,1.241,0,0,0,0-1.748l-2.03-2.023a1.267,1.267,0,0,0-1.75,0l-1.58,1.587a0.842,0.842,0,0,1-.94.187,0.827,0.827,0,0,1-.53-0.8v-2.245a1.241,1.241,0,0,0-1.24-1.235h-2.86a1.241,1.241,0,0,0-1.24,1.235v2.245a0.861,0.861,0,0,1-1.47.61l-1.59-1.587a1.255,1.255,0,0,0-1.74,0l-2.03,2.023a1.241,1.241,0,0,0,0,1.748l1.59,1.587a0.863,0.863,0,0,1,.19.94,0.846,0.846,0,0,1-.8.532h-2.25a1.233,1.233,0,0,0-1.23,1.235v2.862a1.233,1.233,0,0,0,1.23,1.236h2.25a0.846,0.846,0,0,1,.8.532,0.863,0.863,0,0,1-.19.94l-1.59,1.587a1.241,1.241,0,0,0,0,1.748l2.03,2.024a1.256,1.256,0,0,0,1.74,0l1.59-1.588a0.861,0.861,0,0,1,1.47.61v2.245a1.242,1.242,0,0,0,1.24,1.236h2.86a1.242,1.242,0,0,0,1.24-1.236v-2.245a0.827,0.827,0,0,1,.53-0.8,0.84,0.84,0,0,1,.94.187l1.58,1.588a1.269,1.269,0,0,0,1.75,0l2.03-2.024a1.241,1.241,0,0,0,0-1.748l-1.59-1.587a0.828,0.828,0,0,1-.19-0.94,0.846,0.846,0,0,1,.8-0.532h2.24a1.242,1.242,0,0,0,1.24-1.236v-2.862A1.241,1.241,0,0,0,6127.76,887.333Zm0.35,4.1a0.351,0.351,0,0,1-.35.348h-2.24a1.75,1.75,0,0,0-1.24,2.989l1.59,1.587a0.357,0.357,0,0,1,0,.49l-2.03,2.024a0.346,0.346,0,0,1-.49,0l-1.58-1.588a1.752,1.752,0,0,0-2.99,1.239v2.245a0.35,0.35,0,0,1-.35.346h-2.86a0.35,0.35,0,0,1-.35-0.346v-2.245a1.718,1.718,0,0,0-1.08-1.618,1.729,1.729,0,0,0-1.91.379l-1.58,1.587a0.356,0.356,0,0,1-.5,0l-2.02-2.023a0.358,0.358,0,0,1,0-.491l1.59-1.587a1.75,1.75,0,0,0-1.24-2.988h-2.25a0.343,0.343,0,0,1-.34-0.348v-2.862a0.342,0.342,0,0,1,.34-0.346h2.25a1.751,1.751,0,0,0,1.24-2.99l-1.59-1.586a0.358,0.358,0,0,1,0-.491l2.02-2.024a0.357,0.357,0,0,1,.5,0l1.58,1.587a1.751,1.751,0,0,0,2.99-1.238v-2.245a0.35,0.35,0,0,1,.35-0.346h2.86a0.35,0.35,0,0,1,.35.346v2.245a1.752,1.752,0,0,0,2.99,1.239l1.58-1.587a0.345,0.345,0,0,1,.49,0l2.03,2.023a0.358,0.358,0,0,1,0,.491l-1.59,1.587a1.751,1.751,0,0,0,1.24,2.989h2.24a0.35,0.35,0,0,1,.35.346v2.862ZM6117,886a4,4,0,1,0,4,4A4,4,0,0,0,6117,886Zm0,7.111a3.111,3.111,0,1,1,3.11-3.111A3.111,3.111,0,0,1,6117,893.111Z" transform="translate(-6105 -878)"/>
</svg>
